<?xml version="1.0" encoding="UTF-8" standalone="no"?>
<!-- Created with Inkscape (http://www.inkscape.org/) -->

<svg
   xmlns:dc="http://purl.org/dc/elements/1.1/"
   xmlns:cc="http://creativecommons.org/ns#"
   xmlns:rdf="http://www.w3.org/1999/02/22-rdf-syntax-ns#"
   xmlns:svg="http://www.w3.org/2000/svg"
   xmlns="http://www.w3.org/2000/svg"
   xmlns:sodipodi="http://sodipodi.sourceforge.net/DTD/sodipodi-0.dtd"
   xmlns:inkscape="http://www.inkscape.org/namespaces/inkscape"
   width="210.75661mm"
   height="236.37721mm"
   viewBox="0 0 746.77538 837.55705"
   id="svg2"
   version="1.1"
   inkscape:version="0.91 r13725"
   sodipodi:docname="Hughes Entertainment Print Logo.svg">
  <defs
     id="defs4" />
  <sodipodi:namedview
     id="base"
     pagecolor="#ffffff"
     bordercolor="#666666"
     borderopacity="1.0"
     inkscape:pageopacity="0.0"
     inkscape:pageshadow="2"
     inkscape:zoom="0.35"
     inkscape:cx="373.3877"
     inkscape:cy="418.77852"
     inkscape:document-units="px"
     inkscape:current-layer="layer1"
     showgrid="false"
     fit-margin-top="0"
     fit-margin-left="0"
     fit-margin-right="0"
     fit-margin-bottom="0"
     inkscape:window-width="1600"
     inkscape:window-height="837"
     inkscape:window-x="-8"
     inkscape:window-y="-8"
     inkscape:window-maximized="1" />
  <metadata
     id="metadata7">
    <rdf:RDF>
      <cc:Work
         rdf:about="">
        <dc:format>image/svg+xml</dc:format>
        <dc:type
           rdf:resource="http://purl.org/dc/dcmitype/StillImage" />
        <dc:title></dc:title>
      </cc:Work>
    </rdf:RDF>
  </metadata>
  <g
     inkscape:label="Layer 1"
     inkscape:groupmode="layer"
     id="layer1"
     transform="translate(-1.6123,-113.58369)">
    <g
       transform="translate(659.15332,-4.8416978)"
       id="layer1-4"
       inkscape:label="Layer 1"
       style="fill:#000000">
      <g
         inkscape:label="Layer 1"
         id="layer1-0"
         transform="translate(-799.04487,276.731)"
         style="fill:#000000">
        <path
           style="opacity:1;fill:#000000;fill-opacity:1;stroke:#000000;stroke-width:0;stroke-linecap:butt;stroke-linejoin:miter;stroke-miterlimit:2.29999995;stroke-dasharray:none;stroke-dashoffset:0;stroke-opacity:1"
           d="m 725.4463,-158.30561 162.22019,0 0,715.24788 -162.22019,0 z"
           id="rect3367"
           inkscape:connector-curvature="0" />
        <path
           inkscape:connector-curvature="0"
           id="path4170"
           d="m 143.28039,-158.30561 162.22019,0 0,715.24788 -162.22019,0 z"
           style="opacity:1;fill:#000000;fill-opacity:1;stroke:none;stroke-width:0;stroke-linecap:butt;stroke-linejoin:miter;stroke-miterlimit:2.29999995;stroke-dasharray:none;stroke-dashoffset:0;stroke-opacity:1" />
        <path
           sodipodi:nodetypes="ccccccccccc"
           inkscape:connector-curvature="0"
           id="path4174"
           d="m 579.56929,569.65021 -44.98672,-33.09219 -44.57248,33.34232 17.57089,-53.01096 -45.48409,-32.0876 55.88069,-0.44638 16.4272,-52.39755 16.97849,52.43867 55.62344,5.4e-4 -45.3742,32.55886 z"
           inkscape:transform-center-y="-19.710405"
           inkscape:transform-center-x="1.7448695"
           style="opacity:1;fill:#000000;fill-opacity:1;stroke:none;stroke-width:0;stroke-linecap:butt;stroke-linejoin:miter;stroke-miterlimit:2.29999995;stroke-dasharray:none;stroke-dashoffset:0;stroke-opacity:1"
           transform="matrix(2.8964815,0,0,2.963584,-1033.5341,-1306.3764)" />
      </g>
      <path
         inkscape:connector-curvature="0"
         id="path3369"
         d="m -657.54102,864.04688 0,89.57812 20.09961,0 0,-38.46094 48.75977,0 0,38.46094 20.09961,0 0,-89.57812 -20.09961,0 0,36.47656 -48.75977,0 0,-36.47656 -20.09961,0 z"
         style="font-style:normal;font-variant:normal;font-weight:bold;font-stretch:expanded;font-size:medium;line-height:125%;font-family:'Univers Extended';-inkscape-font-specification:'Univers Extended, Bold Expanded';text-align:start;letter-spacing:24.11435127px;word-spacing:0px;writing-mode:lr-tb;text-anchor:start;fill:#000000;fill-opacity:1;stroke:none;stroke-width:1px;stroke-linecap:butt;stroke-linejoin:miter;stroke-opacity:1" />
      <path
         inkscape:connector-curvature="0"
         id="path3371"
         d="m -523.66406,864.04688 0,57.44335 c 0,23.44942 20.22311,34.49219 41.93554,34.49219 39.4546,0 48.01563,-17.61812 48.01563,-38.08984 l 0,-53.8457 -20.09961,0 0,54.21874 c 0,16.50145 -9.92592,23.82032 -24.81445,23.82032 -15.38481,0 -24.9375,-8.43569 -24.9375,-23.32422 l 0,-54.71484 -20.09961,0 z"
         style="font-style:normal;font-variant:normal;font-weight:bold;font-stretch:expanded;font-size:medium;line-height:125%;font-family:'Univers Extended';-inkscape-font-specification:'Univers Extended, Bold Expanded';text-align:start;letter-spacing:24.11435127px;word-spacing:0px;writing-mode:lr-tb;text-anchor:start;fill:#000000;fill-opacity:1;stroke:none;stroke-width:1px;stroke-linecap:butt;stroke-linejoin:miter;stroke-opacity:1" />
      <path
         inkscape:connector-curvature="0"
         id="path3373"
         d="m -337.67773,861.68945 c -35.23618,0 -54.21875,20.09909 -54.21875,46.89844 0,32.50661 22.70496,47.39453 56.08007,47.39453 13.02746,0 32.63084,-2.48032 45.41016,-7.93945 l 0,-41.8125 -48.26367,0 0,13.89648 28.66015,0 0,17.1211 c -9.92568,3.10178 -16.74992,4.09375 -24.5664,4.09375 -27.54377,0 -36.47656,-16.25339 -36.47656,-32.87891 0,-23.32536 17.49276,-32.87891 36.35156,-32.87891 9.92569,0 22.82887,4.83993 23.44922,17.3711 l 20.8457,0 c 0,-20.968 -20.22399,-31.26563 -47.27148,-31.26563 z"
         style="font-style:normal;font-variant:normal;font-weight:bold;font-stretch:expanded;font-size:medium;line-height:125%;font-family:'Univers Extended';-inkscape-font-specification:'Univers Extended, Bold Expanded';text-align:start;letter-spacing:24.11435127px;word-spacing:0px;writing-mode:lr-tb;text-anchor:start;fill:#000000;fill-opacity:1;stroke:none;stroke-width:1px;stroke-linecap:butt;stroke-linejoin:miter;stroke-opacity:1" />
      <path
         inkscape:connector-curvature="0"
         id="path3375"
         d="m -245.21484,864.04688 0,89.57812 20.09961,0 0,-38.46094 48.75976,0 0,38.46094 20.09961,0 0,-89.57812 -20.09961,0 0,36.47656 -48.75976,0 0,-36.47656 -20.09961,0 z"
         style="font-style:normal;font-variant:normal;font-weight:bold;font-stretch:expanded;font-size:medium;line-height:125%;font-family:'Univers Extended';-inkscape-font-specification:'Univers Extended, Bold Expanded';text-align:start;letter-spacing:24.11435127px;word-spacing:0px;writing-mode:lr-tb;text-anchor:start;fill:#000000;fill-opacity:1;stroke:none;stroke-width:1px;stroke-linecap:butt;stroke-linejoin:miter;stroke-opacity:1" />
      <path
         d="m -35.872844,864.04619 -70.968646,0 0,89.5793 73.201925,0 0,-14.64039 -53.102411,0 0,-24.56606 49.008066,0 0,-14.64039 -49.008066,0 0,-21.09208 50.869132,0 0,-14.64038 z"
         style="font-style:normal;font-variant:normal;font-weight:bold;font-stretch:expanded;font-size:medium;line-height:125%;font-family:'Univers Extended';-inkscape-font-specification:'Univers Extended, Bold Expanded';text-align:start;letter-spacing:24.11435127px;word-spacing:0px;writing-mode:lr-tb;text-anchor:start;fill:#000000;fill-opacity:1;stroke:none;stroke-width:1px;stroke-linecap:butt;stroke-linejoin:miter;stroke-opacity:1"
         id="path3377"
         inkscape:connector-curvature="0" />
      <path
         inkscape:connector-curvature="0"
         id="path3379"
         d="m 44.072266,861.68945 c -20.843937,0 -40.1992191,8.31139 -40.1992191,29.03125 0,11.78675 7.8180541,21.83665 31.5156251,25.0625 L 53.875,918.26562 c 9.925684,1.36478 14.515625,4.34128 14.515625,10.79297 0,6.45169 -6.079557,13.64844 -22.705078,13.64844 -15.881095,0 -23.697813,-6.45098 -24.814453,-17.12109 l -20.09960962,0 c 0,19.23101 16.25469662,30.39648 42.18554662,30.39648 30.397407,0 46.277344,-10.91771 46.277344,-29.4043 0,-9.30533 -4.46642,-21.83675 -25.806641,-24.81445 l -25.68164,-3.59765 c -7.940547,-1.11664 -13.027344,-3.97 -13.027344,-10.91797 0,-8.18869 9.179427,-12.28321 17.492188,-12.28321 13.895958,0 21.960652,4.21818 22.705078,15.88086 l 20.099609,0 C 84.39527,872.73132 70.251258,861.68945 44.072266,861.68945 Z"
         style="font-style:normal;font-variant:normal;font-weight:bold;font-stretch:expanded;font-size:medium;line-height:125%;font-family:'Univers Extended';-inkscape-font-specification:'Univers Extended, Bold Expanded';text-align:start;letter-spacing:24.11435127px;word-spacing:0px;writing-mode:lr-tb;text-anchor:start;fill:#000000;fill-opacity:1;stroke:none;stroke-width:1px;stroke-linecap:butt;stroke-linejoin:miter;stroke-opacity:1" />
    </g>
  </g>
</svg>
